<?xml version="1.0" encoding="UTF-8"?>
<!DOCTYPE svg PUBLIC "-//W3C//DTD SVG 1.1//EN" "http://www.w3.org/Graphics/SVG/1.1/DTD/svg11.dtd">
<!-- Creator: CorelDRAW X6 -->
<svg xmlns="http://www.w3.org/2000/svg" xml:space="preserve" width="1.70833in" height="1.02778in" version="1.1" style="shape-rendering:geometricPrecision; text-rendering:geometricPrecision; image-rendering:optimizeQuality; fill-rule:evenodd; clip-rule:evenodd"
viewBox="0 0 1708 1028"
 xmlns:xlink="http://www.w3.org/1999/xlink">
 <defs>
  <style type="text/css">
   <![CDATA[
    .fil3 {fill:#006CB5;fill-rule:nonzero}
    .fil2 {fill:#ED3237;fill-rule:nonzero}
    .fil1 {fill:#FEFEFE;fill-rule:nonzero}
    .fil0 {fill:#A0A29F;fill-rule:nonzero}
   ]]>
  </style>
 </defs>
 <g id="Layer_x0020_1">
  <metadata id="CorelCorpID_0Corel-Layer"/>
  <path class="fil0" d="M828 325c30,0 60,3 88,8l67 -70c-47,-16 -99,-25 -155,-25 -94,0 -180,26 -243,69l58 55c54,-24 117,-37 185,-37z"/>
  <path class="fil1" d="M828 238c55,0 108,9 155,25l73 -76c-68,-27 -145,-42 -227,-42 -122,0 -234,34 -319,89l76 72c63,-43 149,-69 243,-69z"/>
  <path class="fil0" d="M479 534c6,-25 17,-49 33,-70l-29 -30c-6,18 -9,37 -9,57 0,15 2,29 5,43z"/>
  <path class="fil0" d="M263 698l-12 64 122 -53c-8,-16 -9,-37 -14,-55l-96 44z"/>
  <polygon class="fil0" points="177,5 0,974 84,981 259,-1 254,-1 "/>
  <path class="fil2" d="M771 563l0 -78 -128 -122 -58 -55 -76 -72 -250 -237 -1 0 -175 982 371 -163c-37,-33 -63,-67 -82,-108l-121 52 12 -63 78 -407 7 -34 65 65 83 84 36 36 147 126 -142 65c37,37 81,69 140,88l178 -80 -81 -78z"/>
  <path class="fil0" d="M1176 534c3,-14 5,-29 5,-43 0,-44 -16,-85 -44,-121l-42 44c40,34 69,75 80,121z"/>
  <path class="fil0" d="M1255 949l-100 -96c-16,11 -33,21 -51,30l151 145 465 -484 -1 -78 -465 484z"/>
  <path class="fil0" d="M916 623l-82 -79 -63 -60 0 79 89 85 85 81c21,-5 42,-12 61,-20l-89 -86z"/>
  <polygon class="fil0" points="1240,185 1174,254 1101,330 1051,382 956,480 996,518 1096,414 1138,370 1215,290 1240,264 1496,509 1535,468 "/>
  <path class="fil1" d="M1215 290l-77 80c28,36 43,77 43,121 0,15 -2,29 -5,43 -9,37 -29,71 -58,100 -29,30 -68,56 -113,74 -19,8 -40,15 -61,20 -36,9 -76,14 -117,14 -50,0 -98,-7 -141,-21 -59,-18 -110,-48 -147,-85 -13,-13 -25,-28 -35,-43 -12,-19 -21,-39 -26,-60 -3,-14 -5,-29 -5,-43 0,-19 3,-38 9,-57l-88 -89c-32,48 -51,102 -51,159 0,15 1,29 4,43 6,35 18,68 36,98 9,15 20,30 31,45 31,37 71,70 118,97 82,46 184,74 295,74 78,0 151,-14 216,-38 20,-7 39,-16 57,-25 42,-21 79,-47 110,-77 52,-50 87,-110 98,-175 2,-14 4,-29 4,-43 0,-80 -36,-154 -96,-214z"/>
  <path class="fil3" d="M916 624l89 85c45,-19 84,-44 113,-74l-122 -117 -40 -38 94 -98 50 -52 73 -76 66 -69 295 283 -40 41 -241 251c-25,35 -58,66 -97,92l99 96 465 -484 -484 -465 -181 189 -73 76 -67 70 -144 150 145 140z"/>
  <path class="fil0" d="M507 596c0,0 2,4 3,4 7,11 17,22 26,32l145 -67 -333 -310 -9 48 261 258 -93 34z"/>
  <path class="fil0" d="M1311 504c0,15 -1,29 -4,43 -11,66 -46,126 -98,175 -31,30 -68,56 -110,77 -18,9 -37,17 -57,25 -65,24 -138,38 -216,38 -111,0 -213,-28 -295,-74 -47,-27 -87,-60 -118,-97 -12,-14 -22,-29 -31,-45 -18,-31 -30,-64 -36,-98 -2,-14 -4,-29 -4,-43 0,-5 0,-9 1,-14 0,0 0,-1 0,-1 -2,14 0,87 0,102 0,23 3,46 9,68 5,17 11,34 18,50 19,41 49,78 85,111 89,78 222,128 371,128 103,0 199,-24 278,-65 18,-9 35,-19 51,-30 39,-27 72,-58 97,-93 37,-50 58,-108 58,-170 0,-13 1,-74 0,-99 0,-3 0,8 0,12z"/>
  <polygon class="fil0" points="1310,1000 1300,1000 1300,997 1323,997 1323,1000 1314,1000 1314,1027 1310,1027 "/>
  <path class="fil0" d="M1351 1014c0,-4 0,-9 0,-13l0 0c-1,4 -2,7 -4,11l-5 15 -3 0 -5 -14c-1,-4 -3,-8 -3,-12l0 0c0,4 0,9 -1,13l-1 13 -4 0 2 -30 5 0 5 15c1,4 2,7 3,10l0 0c1,-3 2,-6 3,-10l5 -15 5 0 2 30 -4 0 -1 -13z"/>
 </g>
</svg>
